<?xml version="1.0" standalone="no"?>
<!DOCTYPE svg PUBLIC "-//W3C//DTD SVG 20010904//EN"
 "http://www.w3.org/TR/2001/REC-SVG-20010904/DTD/svg10.dtd">
<svg version="1.0" xmlns="http://www.w3.org/2000/svg"
 width="367.000000pt" height="218.000000pt" viewBox="0 0 367.000000 218.000000"
 preserveAspectRatio="xMidYMid meet">
<metadata>
Created by potrace 1.16, written by Peter Selinger 2001-2019
</metadata>
<g transform="translate(0.000000,218.000000) scale(0.100000,-0.100000)"
fill="#000000" stroke="none">
<path d="M0 1090 l0 -1090 1835 0 1835 0 0 1090 0 1090 -1835 0 -1835 0 0
-1090z m1879 536 c39 -68 71 -126 71 -130 0 -3 -65 -6 -145 -6 -80 0 -145 3
-145 7 0 6 142 253 146 253 1 0 34 -56 73 -124z m-1036 -283 c-7 -2 -21 -2
-30 0 -10 3 -4 5 12 5 17 0 24 -2 18 -5z m247 -12 c0 -38 -11 -51 -45 -51
l-32 0 -18 -110 -19 -110 -43 0 c-40 0 -43 2 -38 23 6 26 35 187 35 193 0 2
-13 4 -30 4 -26 0 -30 4 -30 28 0 16 3 32 7 35 3 4 53 7 110 7 95 0 103 -2
103 -19z m334 -108 c4 -71 10 -136 12 -145 5 -15 -2 -18 -40 -18 -42 0 -46 2
-46 25 0 23 -4 25 -44 25 -38 0 -45 -3 -50 -25 -6 -22 -12 -25 -51 -25 l-44 0
13 38 c8 20 28 69 44 107 17 39 37 87 45 108 l16 37 69 0 70 0 6 -127z m139
120 c-7 -2 -21 -2 -30 0 -10 3 -4 5 12 5 17 0 24 -2 18 -5z m117 -83 c0 -49 4
-90 9 -90 9 0 22 31 62 143 12 35 15 37 57 37 38 0 43 -3 38 -17 -3 -10 -30
-75 -59 -145 l-52 -128 -62 0 -61 0 -6 78 c-4 42 -9 107 -12 145 l-5 67 45 0
46 0 0 -90z m278 83 c-10 -2 -26 -2 -35 0 -10 3 -2 5 17 5 19 0 27 -2 18 -5z
m211 -25 c-5 -18 -9 -34 -9 -35 0 -2 -22 -3 -49 -3 -40 0 -50 -3 -54 -20 -5
-18 0 -20 39 -20 37 0 44 -3 44 -19 0 -41 -11 -51 -56 -51 -37 0 -44 -3 -44
-20 0 -18 7 -20 54 -20 l53 0 -6 -32 -7 -33 -97 -3 c-53 -1 -97 1 -97 5 0 10
38 225 45 261 5 21 10 22 99 22 l95 0 -10 -32z m129 25 c-10 -2 -26 -2 -35 0
-10 3 -2 5 17 5 19 0 27 -2 18 -5z m237 -13 c19 -17 21 -27 15 -65 l-7 -45 64
0 c35 0 63 -4 63 -10 0 -6 -23 -7 -60 -3 -57 6 -62 4 -88 -22 -27 -27 -28 -30
-16 -64 21 -57 18 -61 -30 -61 -47 0 -46 -1 -60 63 -10 43 -33 33 -40 -18 -7
-45 -8 -45 -47 -45 -24 0 -39 5 -39 13 0 6 10 72 22 145 l23 132 89 0 c76 0
93 -3 111 -20z m148 13 c-7 -2 -21 -2 -30 0 -10 3 -4 5 12 5 17 0 24 -2 18 -5z
m135 -38 c12 -25 22 -52 22 -60 0 -8 4 -15 9 -15 5 0 12 27 16 60 l7 60 44 0
c24 0 44 -1 44 -2 0 -2 -11 -64 -25 -138 -14 -74 -25 -138 -25 -142 0 -5 -18
-8 -40 -8 -38 0 -41 3 -65 50 -14 27 -25 57 -25 67 -1 34 -17 -9 -25 -64 l-7
-53 -42 0 -42 0 25 145 24 145 42 0 c39 0 42 -2 63 -45z m-1968 -4 c0 -4 -24
-6 -52 -4 -78 7 -82 11 -10 12 34 1 62 -3 62 -8z m386 2 c-7 -7 -98 -5 -105 3
-2 2 22 4 54 4 32 0 55 -3 51 -7z m334 -1 c0 -4 -19 -6 -42 -4 -71 5 -77 10
-15 11 31 0 57 -2 57 -7z m390 -1 c0 -5 -21 -6 -47 -4 -71 7 -75 11 -10 12 31
1 57 -3 57 -8z m340 0 c0 -5 -21 -6 -47 -4 -71 7 -75 11 -10 12 31 1 57 -3 57
-8z m380 0 c0 -5 -21 -6 -47 -4 -71 7 -75 11 -10 12 31 1 57 -3 57 -8z m-1792
-48 c-10 -2 -28 -2 -40 0 -13 2 -5 4 17 4 22 1 32 -1 23 -4z m320 0 c-10 -2
-28 -2 -40 0 -13 2 -5 4 17 4 22 1 32 -1 23 -4z m355 0 c-13 -2 -33 -2 -45 0
-13 2 -3 4 22 4 25 0 35 -2 23 -4z m370 0 c-13 -2 -33 -2 -45 0 -13 2 -3 4 22
4 25 0 35 -2 23 -4z m350 0 c-13 -2 -33 -2 -45 0 -13 2 -3 4 22 4 25 0 35 -2
23 -4z m380 0 c-13 -2 -33 -2 -45 0 -13 2 -3 4 22 4 25 0 35 -2 23 -4z m-1769
-42 c-5 -5 -35 -6 -69 -1 l-60 7 69 2 c43 0 66 -3 60 -8z m306 -1 c0 -9 -118
-3 -129 6 -2 2 26 4 62 4 37 0 67 -4 67 -10z m380 0 c0 -9 -118 -3 -129 6 -2
2 26 4 62 4 37 0 67 -4 67 -10z m360 1 c0 -8 -119 -3 -129 5 -2 2 26 4 62 4
37 0 67 -4 67 -9z m350 -1 c0 -9 -118 -3 -129 6 -2 2 26 4 62 4 37 0 67 -4 67
-10z m-1417 -47 c-13 -2 -35 -2 -50 0 -16 2 -5 4 22 4 28 0 40 -2 28 -4z m290
0 c-13 -2 -35 -2 -50 0 -16 2 -5 4 22 4 28 0 40 -2 28 -4z m400 0 c-13 -2 -35
-2 -50 0 -16 2 -5 4 22 4 28 0 40 -2 28 -4z m350 0 c-13 -2 -35 -2 -50 0 -16
2 -5 4 22 4 28 0 40 -2 28 -4z m350 0 c-13 -2 -35 -2 -50 0 -16 2 -5 4 22 4
28 0 40 -2 28 -4z m380 0 c-13 -2 -35 -2 -50 0 -16 2 -5 4 22 4 28 0 40 -2 28
-4z m-1770 -50 c-7 -2 -21 -2 -30 0 -10 3 -4 5 12 5 17 0 24 -2 18 -5z m280 0
c-7 -2 -21 -2 -30 0 -10 3 -4 5 12 5 17 0 24 -2 18 -5z m420 0 c-7 -2 -21 -2
-30 0 -10 3 -4 5 12 5 17 0 24 -2 18 -5z m350 0 c-7 -2 -21 -2 -30 0 -10 3 -4
5 12 5 17 0 24 -2 18 -5z m340 0 c-7 -2 -21 -2 -30 0 -10 3 -4 5 12 5 17 0 24
-2 18 -5z m380 0 c-7 -2 -21 -2 -30 0 -10 3 -4 5 12 5 17 0 24 -2 18 -5z
m-1773 -42 c0 -5 -21 -6 -47 -4 -71 7 -75 11 -10 12 31 1 57 -3 57 -8z m270 0
c0 -5 -21 -6 -47 -4 -71 7 -75 11 -10 12 31 1 57 -3 57 -8z m450 0 c0 -5 -21
-6 -47 -4 -71 7 -75 11 -10 12 31 1 57 -3 57 -8z m330 0 c0 -5 -21 -6 -47 -4
-71 7 -75 11 -10 12 31 1 57 -3 57 -8z m346 2 c-7 -7 -108 -5 -115 3 -2 2 24
4 59 4 35 0 60 -3 56 -7z m374 -2 c0 -5 -21 -6 -47 -4 -71 7 -75 11 -10 12 31
1 57 -3 57 -8z m320 -61 c0 -7 -392 -10 -1155 -10 -763 0 -1155 3 -1155 10 0
7 392 10 1155 10 763 0 1155 -3 1155 -10z m-600 -66 c0 -8 -9 -14 -20 -14 -19
0 -20 -7 -20 -110 l0 -110 -25 0 -25 0 0 110 c0 103 -1 110 -20 110 -38 0 -22
29 18 32 56 5 92 -3 92 -18z m600 -110 c0 -117 -1 -124 -20 -124 -19 0 -20 7
-20 123 0 68 3 126 6 130 3 3 12 3 20 0 11 -4 14 -32 14 -129z m-2210 116 c0
-5 -13 -10 -30 -10 -28 0 -30 -2 -30 -40 0 -36 3 -40 25 -40 16 0 25 -6 25
-15 0 -9 -9 -15 -25 -15 -23 0 -25 -4 -25 -45 0 -43 1 -45 30 -45 20 0 30 -5
30 -15 0 -12 -13 -15 -55 -15 l-55 0 0 125 0 125 55 0 c30 0 55 -4 55 -10z
m70 -115 c0 -118 -1 -125 -20 -125 -19 0 -20 7 -20 125 0 118 1 125 20 125 19
0 20 -7 20 -125z m829 75 l15 -45 15 48 c10 33 20 47 33 47 23 0 23 -2 -7 -90
-14 -40 -25 -93 -25 -117 0 -36 -3 -43 -20 -43 -17 0 -20 7 -20 49 0 43 -20
124 -45 184 -6 16 -4 18 15 15 18 -2 27 -14 39 -48z m-329 15 c0 -14 7 -28 15
-31 8 -4 15 -12 15 -20 0 -8 -7 -14 -15 -14 -12 0 -15 -13 -15 -55 0 -40 4
-57 15 -61 27 -11 17 -34 -14 -34 -35 0 -41 13 -41 89 0 32 -6 63 -12 70 -10
11 -10 14 0 18 6 3 12 18 12 34 0 22 5 29 20 29 15 0 20 -7 20 -25z m-360 -54
c5 -11 10 -31 10 -45 0 -21 -5 -25 -37 -28 -43 -3 -52 -22 -28 -53 14 -20 15
-20 21 3 6 22 44 32 44 11 0 -50 -75 -69 -104 -27 -20 29 -20 107 0 136 20 29
79 31 94 3z m77 -43 l9 -63 8 40 c15 81 16 85 35 85 18 0 18 -3 5 -67 -24
-115 -23 -113 -48 -113 -21 0 -25 7 -40 83 -20 101 -20 97 3 97 16 0 21 -11
28 -62z m191 50 c7 -7 12 -42 12 -89 l0 -77 -52 2 -53 1 0 35 c0 28 6 38 32
55 33 21 44 55 18 55 -8 0 -15 -7 -15 -15 0 -8 -9 -15 -20 -15 -22 0 -25 12
-10 41 12 22 68 27 88 7z m250 0 c7 -7 12 -27 12 -45 0 -31 -2 -33 -35 -33
-32 0 -35 -2 -35 -29 0 -36 19 -51 27 -22 7 26 43 29 43 3 0 -27 -20 -42 -55
-42 -45 0 -55 16 -55 90 0 38 5 71 12 78 16 16 70 16 86 0z m376 -10 c18 -25
21 -94 6 -132 -8 -22 -16 -26 -49 -26 -49 0 -61 18 -61 90 0 70 12 90 55 90
24 0 39 -7 49 -22z m88 -55 c4 -100 22 -98 26 2 3 72 4 75 27 75 25 0 25 -1
25 -90 l0 -90 -57 3 -58 2 -3 88 c-3 81 -1 87 17 87 18 0 20 -8 23 -77z m148
65 c0 -9 3 -9 12 0 18 18 38 14 38 -8 0 -13 -7 -20 -19 -20 -24 0 -31 -19 -31
-86 0 -47 -2 -54 -20 -54 -19 0 -20 7 -20 90 0 83 1 90 20 90 11 0 20 -5 20
-12z m330 0 c0 -9 3 -9 12 0 18 18 38 14 38 -8 0 -13 -7 -20 -19 -20 -24 0
-31 -19 -31 -86 0 -47 -2 -54 -20 -54 -19 0 -20 7 -20 90 0 83 1 90 20 90 11
0 20 -5 20 -12z m181 -18 c4 -14 7 -53 8 -87 1 -57 -1 -63 -19 -63 -11 0 -20
5 -20 12 0 9 -3 9 -12 0 -21 -21 -57 -14 -64 12 -8 33 9 61 46 76 33 14 35 18
20 40 -9 13 -12 13 -24 -2 -27 -35 -55 -15 -30 21 23 32 85 26 95 -9z m76 -32
l9 -63 8 50 c10 70 13 75 34 75 19 0 19 -3 6 -67 -24 -115 -23 -113 -48 -113
-21 0 -25 7 -40 83 -20 101 -20 97 3 97 16 0 21 -11 28 -62z m191 50 c7 -7 12
-27 12 -45 0 -31 -2 -33 -35 -33 -32 0 -35 -2 -35 -29 0 -36 19 -51 27 -22 7
26 43 29 43 3 0 -27 -20 -42 -55 -42 -17 0 -36 5 -43 12 -16 16 -16 140 0 156
16 16 70 16 86 0z m-305 -440 l75 -133 -413 -3 c-227 -1 -602 -1 -833 0 l-420
3 75 133 75 132 683 0 683 0 75 -132z"/>
<path d="M1314 1235 c-19 -46 -18 -55 6 -55 17 0 20 7 20 45 0 25 -2 45 -6 45
-3 0 -12 -16 -20 -35z"/>
<path d="M2400 1249 c0 -27 3 -30 28 -27 21 2 28 9 30 31 3 24 0 27 -27 27
-28 0 -31 -3 -31 -31z"/>
<path d="M896 844 c-9 -23 -8 -24 14 -24 13 0 20 7 20 20 0 24 -25 27 -34 4z"/>
<path d="M1182 788 c-17 -17 -15 -48 3 -48 10 0 15 10 15 30 0 34 -1 35 -18
18z"/>
<path d="M1420 840 c0 -11 7 -20 15 -20 8 0 15 9 15 20 0 11 -7 20 -15 20 -8
0 -15 -9 -15 -20z"/>
<path d="M1790 801 c0 -59 14 -86 31 -60 5 8 8 36 7 64 -2 38 -7 51 -20 53
-16 3 -18 -5 -18 -57z"/>
<path d="M2542 788 c-7 -7 -12 -20 -12 -31 0 -30 34 -16 38 16 4 29 -6 35 -26
15z"/>
<path d="M2810 840 c0 -11 7 -20 15 -20 8 0 15 9 15 20 0 11 -7 20 -15 20 -8
0 -15 -9 -15 -20z"/>
</g>
</svg>
