<?xml version="1.0" standalone="no"?>
<!DOCTYPE svg PUBLIC "-//W3C//DTD SVG 20010904//EN"
 "http://www.w3.org/TR/2001/REC-SVG-20010904/DTD/svg10.dtd">
<svg version="1.0" xmlns="http://www.w3.org/2000/svg"
 width="375.000000pt" height="231.000000pt" viewBox="0 0 375.000000 231.000000"
 preserveAspectRatio="xMidYMid meet">
<metadata>
Created by potrace 1.16, written by Peter Selinger 2001-2019
</metadata>
<g transform="translate(0.000000,231.000000) scale(0.100000,-0.100000)"
fill="#000000" stroke="none">
<path d="M0 1155 l0 -1155 1875 0 1875 0 0 1155 0 1155 -1875 0 -1875 0 0
-1155z m1939 581 c39 -68 71 -127 71 -132 0 -5 -32 45 -71 111 -39 66 -72 121
-73 122 -1 2 -33 -51 -71 -117 -38 -65 -71 -118 -73 -115 -4 3 138 255 143
255 1 0 35 -56 74 -124z m-1036 -283 c-7 -2 -21 -2 -30 0 -10 3 -4 5 12 5 17
0 24 -2 18 -5z m247 -5 c-1 -42 -13 -58 -45 -58 l-32 0 -18 -110 -19 -110 -43
0 c-40 0 -43 2 -38 23 6 26 35 187 35 193 0 2 -13 4 -30 4 -26 0 -30 4 -30 28
0 16 3 32 7 35 3 4 53 7 110 7 76 0 103 -3 103 -12z m334 -115 c4 -71 10 -136
12 -145 5 -15 -2 -18 -40 -18 -42 0 -46 2 -46 25 0 23 -4 25 -44 25 -38 0 -45
-3 -50 -25 -6 -22 -12 -25 -51 -25 -25 0 -45 2 -45 4 0 2 20 51 44 108 24 56
51 120 60 141 l15 37 69 0 70 0 6 -127z m134 120 c-10 -2 -26 -2 -35 0 -10 3
-2 5 17 5 19 0 27 -2 18 -5z m122 -83 c0 -49 4 -90 9 -90 9 0 71 150 71 171 0
5 21 9 46 9 40 0 45 -2 40 -17 -4 -10 -30 -75 -58 -145 l-52 -128 -62 0 -62 0
-6 78 c-4 42 -9 107 -12 145 l-5 67 45 0 46 0 0 -90z m278 83 c-10 -2 -28 -2
-40 0 -13 2 -5 4 17 4 22 1 32 -1 23 -4z m211 -25 c-5 -18 -9 -34 -9 -35 0 -2
-22 -3 -49 -3 -40 0 -50 -3 -54 -20 -5 -18 0 -20 39 -20 37 0 44 -3 44 -19 0
-41 -11 -51 -56 -51 -37 0 -44 -3 -44 -20 0 -18 7 -20 54 -20 l53 0 -6 -32 -7
-33 -97 -3 c-53 -1 -97 1 -97 5 0 10 38 225 45 261 5 21 10 22 99 22 l95 0
-10 -32z m134 25 c-7 -2 -21 -2 -30 0 -10 3 -4 5 12 5 17 0 24 -2 18 -5z m232
-13 c19 -17 21 -27 15 -65 l-7 -45 64 0 c35 0 63 -4 63 -10 0 -6 -23 -7 -60
-3 -57 6 -62 4 -88 -22 -27 -27 -28 -30 -16 -64 21 -57 18 -61 -30 -61 -47 0
-46 -1 -60 63 -10 43 -33 33 -40 -18 -7 -45 -8 -45 -47 -45 -24 0 -39 5 -39
13 0 6 10 72 22 145 l23 132 89 0 c76 0 93 -3 111 -20z m143 13 c-10 -2 -26
-2 -35 0 -10 3 -2 5 17 5 19 0 27 -2 18 -5z m140 -38 c12 -25 22 -52 22 -60 0
-8 4 -15 8 -15 5 0 13 26 18 58 l9 57 43 3 c23 2 42 2 42 0 0 -2 -11 -63 -25
-137 -14 -74 -25 -138 -25 -143 0 -4 -18 -8 -40 -8 -38 0 -41 3 -65 50 -14 27
-25 57 -26 67 -1 29 -16 -16 -24 -71 l-7 -46 -42 0 -42 0 25 145 25 145 41 0
c39 0 42 -3 63 -45z m-1968 -4 c0 -4 -24 -6 -52 -4 -78 7 -82 11 -10 12 34 1
62 -3 62 -8z m386 2 c-7 -7 -98 -5 -105 3 -2 2 22 4 54 4 32 0 55 -3 51 -7z
m334 -1 c0 -4 -19 -6 -42 -4 -71 5 -77 10 -15 11 31 0 57 -2 57 -7z m390 -1
c0 -5 -21 -6 -47 -4 -71 7 -75 11 -10 12 31 1 57 -3 57 -8z m340 0 c0 -5 -21
-6 -47 -4 -71 7 -75 11 -10 12 31 1 57 -3 57 -8z m380 0 c0 -5 -21 -6 -47 -4
-71 7 -75 11 -10 12 31 1 57 -3 57 -8z m-1792 -48 c-10 -2 -28 -2 -40 0 -13 2
-5 4 17 4 22 1 32 -1 23 -4z m315 0 c-13 -2 -33 -2 -45 0 -13 2 -3 4 22 4 25
0 35 -2 23 -4z m360 0 c-13 -2 -33 -2 -45 0 -13 2 -3 4 22 4 25 0 35 -2 23 -4z
m375 0 c-10 -2 -28 -2 -40 0 -13 2 -5 4 17 4 22 1 32 -1 23 -4z m345 0 c-13
-2 -33 -2 -45 0 -13 2 -3 4 22 4 25 0 35 -2 23 -4z m380 0 c-13 -2 -33 -2 -45
0 -13 2 -3 4 22 4 25 0 35 -2 23 -4z m-1769 -42 c-5 -5 -37 -6 -74 -1 l-65 7
74 2 c45 0 71 -3 65 -8z m306 0 c0 -8 -119 -3 -129 5 -2 2 26 4 62 4 37 0 67
-4 67 -9z m380 -1 c0 -9 -118 -3 -129 6 -2 2 26 4 62 4 37 0 67 -4 67 -10z
m360 1 c0 -8 -119 -3 -129 5 -2 2 26 4 62 4 37 0 67 -4 67 -9z m350 -1 c0 -9
-118 -3 -129 6 -2 2 26 4 62 4 37 0 67 -4 67 -10z m-1417 -47 c-13 -2 -35 -2
-50 0 -16 2 -5 4 22 4 28 0 40 -2 28 -4z m290 0 c-13 -2 -35 -2 -50 0 -16 2
-5 4 22 4 28 0 40 -2 28 -4z m400 0 c-13 -2 -35 -2 -50 0 -16 2 -5 4 22 4 28
0 40 -2 28 -4z m350 0 c-13 -2 -35 -2 -50 0 -16 2 -5 4 22 4 28 0 40 -2 28 -4z
m350 0 c-13 -2 -35 -2 -50 0 -16 2 -5 4 22 4 28 0 40 -2 28 -4z m380 0 c-13
-2 -35 -2 -50 0 -16 2 -5 4 22 4 28 0 40 -2 28 -4z m-1770 -50 c-7 -2 -21 -2
-30 0 -10 3 -4 5 12 5 17 0 24 -2 18 -5z m280 0 c-7 -2 -21 -2 -30 0 -10 3 -4
5 12 5 17 0 24 -2 18 -5z m420 0 c-7 -2 -19 -2 -25 0 -7 3 -2 5 12 5 14 0 19
-2 13 -5z m345 0 c-10 -2 -26 -2 -35 0 -10 3 -2 5 17 5 19 0 27 -2 18 -5z
m345 0 c-7 -2 -21 -2 -30 0 -10 3 -4 5 12 5 17 0 24 -2 18 -5z m380 0 c-7 -2
-21 -2 -30 0 -10 3 -4 5 12 5 17 0 24 -2 18 -5z m-1773 -42 c0 -5 -21 -6 -47
-4 -71 7 -75 11 -10 12 31 1 57 -3 57 -8z m270 0 c0 -5 -21 -6 -47 -4 -71 7
-75 11 -10 12 31 1 57 -3 57 -8z m450 0 c0 -5 -21 -6 -47 -4 -71 7 -75 11 -10
12 31 1 57 -3 57 -8z m330 0 c0 -4 -24 -6 -52 -4 -78 7 -82 11 -10 12 34 1 62
-3 62 -8z m340 1 c0 -4 -19 -6 -42 -4 -71 5 -77 10 -15 11 31 0 57 -2 57 -7z
m380 -1 c0 -5 -21 -6 -47 -4 -71 7 -75 11 -10 12 31 1 57 -3 57 -8z m320 -61
c0 -7 -392 -10 -1155 -10 -763 0 -1155 3 -1155 10 0 7 392 10 1155 10 763 0
1155 -3 1155 -10z m-2210 -60 c0 -5 -13 -10 -30 -10 -28 0 -30 -2 -30 -40 0
-36 3 -40 25 -40 16 0 25 -6 25 -15 0 -9 -9 -15 -25 -15 -23 0 -25 -4 -25 -45
0 -43 1 -45 30 -45 20 0 30 -5 30 -15 0 -12 -13 -15 -55 -15 l-55 0 0 125 0
125 55 0 c30 0 55 -4 55 -10z m70 -115 c0 -118 -1 -125 -20 -125 -19 0 -20 7
-20 125 0 118 1 125 20 125 19 0 20 -7 20 -125z m829 75 l15 -45 15 48 c10 33
20 47 33 47 23 0 23 -2 -7 -90 -14 -40 -25 -93 -25 -117 0 -36 -3 -43 -20 -43
-17 0 -20 7 -20 50 0 27 -11 83 -24 125 l-24 76 21 -3 c16 -2 26 -15 36 -48z
m711 35 c0 -8 -9 -15 -20 -15 -19 0 -20 -7 -20 -110 l0 -110 -25 0 -25 0 0
110 c0 103 -1 110 -20 110 -11 0 -20 7 -20 15 0 12 14 15 65 15 51 0 65 -3 65
-15z m600 -110 c0 -118 -1 -125 -20 -125 -19 0 -20 7 -20 125 0 118 1 125 20
125 19 0 20 -7 20 -125z m-1640 90 c0 -14 7 -28 15 -31 8 -4 15 -12 15 -20 0
-8 -7 -14 -15 -14 -12 0 -15 -13 -15 -55 0 -40 4 -57 15 -61 27 -11 17 -34
-14 -34 -35 0 -41 13 -41 89 0 32 -6 63 -12 70 -10 11 -10 14 0 18 6 3 12 18
12 34 0 22 5 29 20 29 15 0 20 -7 20 -25z m-360 -54 c5 -11 10 -31 10 -45 0
-21 -5 -25 -37 -28 -30 -2 -39 -8 -41 -24 -2 -11 4 -27 13 -34 14 -11 17 -10
22 8 5 22 43 32 43 11 0 -31 -22 -49 -59 -49 -31 0 -40 5 -49 25 -17 37 -15
107 4 133 20 29 79 31 94 3z m76 -37 c7 -57 24 -58 24 -2 0 39 10 58 30 58 16
0 17 -4 4 -67 -24 -115 -23 -113 -48 -113 -21 0 -25 7 -40 83 -20 101 -20 97
3 97 16 0 21 -10 27 -56z m192 44 c7 -7 12 -42 12 -89 l0 -77 -52 2 -53 1 0
35 c0 28 6 38 32 55 33 21 44 55 18 55 -8 0 -15 -7 -15 -15 0 -8 -9 -15 -20
-15 -22 0 -25 12 -10 41 12 22 68 27 88 7z m250 0 c7 -7 12 -27 12 -45 0 -31
-2 -33 -35 -33 -32 0 -35 -2 -35 -29 0 -36 19 -51 27 -22 7 26 43 29 43 3 0
-27 -20 -42 -55 -42 -45 0 -55 16 -55 90 0 38 5 71 12 78 16 16 70 16 86 0z
m376 -10 c18 -25 21 -94 6 -132 -8 -22 -16 -26 -49 -26 -49 0 -61 18 -61 90 0
70 12 90 55 90 24 0 39 -7 49 -22z m88 -55 c4 -100 22 -98 26 2 3 72 4 75 27
75 25 0 25 -1 25 -90 l0 -90 -57 3 -58 2 -3 88 c-3 81 -1 87 17 87 18 0 20 -8
23 -77z m148 65 c0 -9 3 -9 12 0 18 18 38 14 38 -8 0 -13 -7 -20 -19 -20 -24
0 -31 -19 -31 -86 0 -47 -2 -54 -20 -54 -19 0 -20 7 -20 90 0 83 1 90 20 90
11 0 20 -5 20 -12z m330 0 c0 -9 3 -9 12 0 18 18 38 14 38 -8 0 -13 -7 -20
-19 -20 -24 0 -31 -19 -31 -86 0 -47 -2 -54 -20 -54 -19 0 -20 7 -20 90 0 83
1 90 20 90 11 0 20 -5 20 -12z m181 -18 c4 -14 7 -53 8 -87 1 -57 -1 -63 -19
-63 -11 0 -20 5 -20 12 0 9 -3 9 -12 0 -21 -21 -57 -14 -64 12 -8 33 9 61 46
76 33 14 35 18 20 40 -9 13 -12 13 -24 -2 -27 -35 -55 -15 -30 21 23 32 85 26
95 -9z m76 -32 l9 -63 8 50 c10 70 13 75 34 75 19 0 19 -3 6 -67 -24 -115 -23
-113 -48 -113 -21 0 -25 7 -40 83 -20 101 -20 97 3 97 16 0 21 -11 28 -62z
m191 50 c7 -7 12 -27 12 -45 0 -31 -2 -33 -35 -33 -32 0 -35 -2 -35 -29 0 -36
19 -51 27 -22 7 26 43 29 43 3 0 -27 -20 -42 -55 -42 -17 0 -36 5 -43 12 -16
16 -16 140 0 156 16 16 70 16 86 0z m-1806 -438 l-71 -120 814 0 814 0 -71
120 c-39 67 -68 123 -66 126 3 3 32 -42 64 -98 32 -57 66 -118 77 -136 l19
-32 -837 0 -837 0 25 43 c13 23 48 84 77 135 28 51 54 91 57 88 3 -3 -26 -59
-65 -126z"/>
<path d="M1375 1344 c-20 -47 -19 -54 5 -54 17 0 20 7 20 45 0 25 -2 45 -5 45
-3 0 -12 -16 -20 -36z"/>
<path d="M2467 1383 c-4 -3 -7 -17 -7 -30 0 -21 4 -24 28 -21 21 2 28 9 30 31
3 23 0 27 -21 27 -13 0 -27 -3 -30 -7z"/>
<path d="M956 954 c-9 -23 -8 -24 14 -24 13 0 20 7 20 20 0 24 -25 27 -34 4z"/>
<path d="M1242 898 c-17 -17 -15 -48 3 -48 10 0 15 10 15 30 0 34 -1 35 -18
18z"/>
<path d="M1480 950 c0 -11 7 -20 15 -20 8 0 15 9 15 20 0 11 -7 20 -15 20 -8
0 -15 -9 -15 -20z"/>
<path d="M1857 973 c-12 -11 -8 -121 4 -129 17 -10 29 16 29 67 0 44 -18 78
-33 62z"/>
<path d="M2602 898 c-7 -7 -12 -20 -12 -31 0 -30 34 -16 38 16 4 29 -6 35 -26
15z"/>
<path d="M2870 950 c0 -11 7 -20 15 -20 8 0 15 9 15 20 0 11 -7 20 -15 20 -8
0 -15 -9 -15 -20z"/>
</g>
</svg>
